# 3ds Max Wavefront OBJ Exporter v0.97b - (c)2007 guruware
# File Created: 15.11.2017 02:01:37

mtllib Centro.mtl

#
# object Cylinder001
#

v  4.6906 0.0000 3.3298
v  3.2360 0.0000 -3.9834
v  3.2360 12.7575 -3.9834
v  4.6906 12.7575 3.3298
v  -0.9066 0.0000 -10.1832
v  -0.9066 12.7575 -10.1832
v  -7.1064 0.0000 -14.3258
v  -7.1064 12.7575 -14.3258
v  -14.4196 0.0000 -15.7804
v  -14.4196 12.7575 -15.7804
v  -21.7327 0.0000 -14.3258
v  -21.7327 12.7575 -14.3258
v  -27.9325 0.0000 -10.1832
v  -27.9325 12.7575 -10.1832
v  -32.0751 0.0000 -3.9834
v  -32.0751 12.7575 -3.9834
v  -33.5298 0.0000 3.3297
v  -33.5298 12.7575 3.3297
v  -32.0751 0.0000 10.6429
v  -32.0751 12.7575 10.6429
v  -27.9325 0.0000 16.8427
v  -27.9325 12.7575 16.8427
v  -21.7327 0.0000 20.9853
v  -21.7327 12.7575 20.9853
v  -14.4196 0.0000 22.4399
v  -14.4196 12.7575 22.4399
v  -7.1064 0.0000 20.9853
v  -7.1064 12.7575 20.9853
v  -0.9066 0.0000 16.8427
v  -0.9066 12.7575 16.8427
v  3.2360 0.0000 10.6429
v  3.2360 12.7575 10.6429
# 32 vertices

vn 1.0000 0.0000 -0.0000
vn 0.9239 0.0000 -0.3827
vn 0.7071 0.0000 -0.7071
vn 0.3827 0.0000 -0.9239
vn 0.0000 0.0000 -1.0000
vn -0.0000 0.0000 -1.0000
vn -0.3827 0.0000 -0.9239
vn -0.7071 0.0000 -0.7071
vn -0.9239 0.0000 -0.3827
vn -1.0000 0.0000 -0.0000
vn -0.9239 0.0000 0.3827
vn -0.7071 0.0000 0.7071
vn -0.3827 0.0000 0.9239
vn 0.0000 0.0000 1.0000
vn 0.3827 0.0000 0.9239
vn 0.7071 0.0000 0.7071
vn 0.9239 0.0000 0.3827
vn 0.0000 -1.0000 -0.0000
vn 0.0000 1.0000 -0.0000
# 19 vertex normals

vt 0.7500 0.0000 0.0000
vt 0.8125 0.0000 0.0000
vt 0.8125 0.1069 0.0000
vt 0.7500 0.1069 0.0000
vt 0.8750 0.0000 0.0000
vt 0.8750 0.1069 0.0000
vt 0.9375 0.0000 0.0000
vt 0.9375 0.1069 0.0000
vt 1.0000 0.0000 0.0000
vt 1.0000 0.1069 0.0000
vt 0.0000 -0.0000 0.0000
vt 0.0625 -0.0000 0.0000
vt 0.0625 0.1069 0.0000
vt -0.0000 0.1069 0.0000
vt 0.1250 -0.0000 0.0000
vt 0.1250 0.1069 0.0000
vt 0.1875 -0.0000 0.0000
vt 0.1875 0.1069 0.0000
vt 0.2500 -0.0000 0.0000
vt 0.2500 0.1069 0.0000
vt 0.3125 -0.0000 0.0000
vt 0.3125 0.1069 0.0000
vt 0.3750 -0.0000 0.0000
vt 0.3750 0.1069 0.0000
vt 0.4375 0.0000 0.0000
vt 0.4375 0.1069 0.0000
vt 0.5000 0.0000 0.0000
vt 0.5000 0.1069 0.0000
vt 0.5625 0.0000 0.0000
vt 0.5625 0.1069 0.0000
vt 0.6250 0.0000 0.0000
vt 0.6250 0.1069 0.0000
vt 0.6875 0.0000 0.0000
vt 0.6875 0.1069 0.0000
vt 0.7981 0.8620 -0.2500
vt 0.6254 0.8620 -0.2500
vt 0.7117 0.8792 -0.2500
vt 0.2291 0.8853 0.2500
vt 0.1427 0.8681 0.2500
vt 0.3154 0.8681 0.2500
vt 0.0695 0.8192 0.2500
vt 0.3886 0.8192 0.2500
vt 0.0206 0.7460 0.2500
vt 0.4376 0.7460 0.2500
vt 0.0035 0.6596 0.2500
vt 0.4547 0.6596 0.2500
vt 0.0206 0.5733 0.2500
vt 0.4376 0.5733 0.2500
vt 0.0695 0.5001 0.2500
vt 0.3886 0.5001 0.2500
vt 0.1427 0.4512 0.2500
vt 0.3154 0.4512 0.2500
vt 0.2291 0.4340 0.2500
vt 0.8713 0.8131 -0.2500
vt 0.5522 0.8131 -0.2500
vt 0.9202 0.7399 -0.2500
vt 0.5033 0.7399 -0.2500
vt 0.9374 0.6536 -0.2500
vt 0.4861 0.6536 -0.2500
vt 0.9202 0.5672 -0.2500
vt 0.5033 0.5672 -0.2500
vt 0.8713 0.4940 -0.2500
vt 0.5522 0.4940 -0.2500
vt 0.7981 0.4451 -0.2500
vt 0.6254 0.4451 -0.2500
vt 0.7117 0.4279 -0.2500
# 66 texture coords

g Cylinder001
usemtl Material__3
f 1/1/1 2/2/2 3/3/2 4/4/1 
f 2/2/2 5/5/3 6/6/3 3/3/2 
f 5/5/3 7/7/4 8/8/4 6/6/3 
f 7/7/4 9/9/5 10/10/6 8/8/4 
f 9/11/5 11/12/7 12/13/7 10/14/6 
f 11/12/7 13/15/8 14/16/8 12/13/7 
f 13/15/8 15/17/9 16/18/9 14/16/8 
f 15/17/9 17/19/10 18/20/10 16/18/9 
f 17/19/10 19/21/11 20/22/11 18/20/10 
f 19/21/11 21/23/12 22/24/12 20/22/11 
f 21/23/12 23/25/13 24/26/13 22/24/12 
f 23/25/13 25/27/14 26/28/14 24/26/13 
f 25/27/14 27/29/15 28/30/15 26/28/14 
f 27/29/15 29/31/16 30/32/16 28/30/15 
f 29/31/16 31/33/17 32/34/17 30/32/16 
f 31/33/17 1/1/1 4/4/1 32/34/17 
f 31/35/18 2/36/18 1/37/18 
f 4/38/19 3/39/19 32/40/19 
f 6/41/19 30/42/19 32/40/19 3/39/19 
f 8/43/19 28/44/19 30/42/19 6/41/19 
f 10/45/19 26/46/19 28/44/19 8/43/19 
f 12/47/19 24/48/19 26/46/19 10/45/19 
f 14/49/19 22/50/19 24/48/19 12/47/19 
f 16/51/19 20/52/19 22/50/19 14/49/19 
f 16/51/19 18/53/19 20/52/19 
f 29/54/18 5/55/18 2/36/18 31/35/18 
f 27/56/18 7/57/18 5/55/18 29/54/18 
f 25/58/18 9/59/18 7/57/18 27/56/18 
f 23/60/18 11/61/18 9/59/18 25/58/18 
f 21/62/18 13/63/18 11/61/18 23/60/18 
f 19/64/18 15/65/18 13/63/18 21/62/18 
f 19/64/18 17/66/18 15/65/18 
# 28 polygons - 4 triangles

