# 3ds Max Wavefront OBJ Exporter v0.97b - (c)2007 guruware
# File Created: 15.11.2017 04:34:48

mtllib Engranes 2.mtl

#
# object Object001
#

v  0.2006 0.5308 0.4133
v  -0.0021 0.5308 0.2107
v  -0.0021 0.6692 0.2107
v  0.2006 0.6692 0.4133
v  0.0266 0.5308 0.1037
v  -0.2503 0.5308 0.0295
v  -0.2503 0.6692 0.0295
v  0.0266 0.6692 0.1037
v  -0.5558 0.6692 0.2107
v  -0.2789 0.6692 0.1365
v  -0.2789 0.5308 0.1365
v  -0.5558 0.5308 0.2107
v  -0.8368 0.5308 0.3350
v  -0.8368 0.6692 0.3350
v  -0.6341 0.6692 0.1323
v  -0.6341 0.5308 0.1323
v  -0.7584 0.6692 0.4133
v  -0.7584 0.5308 0.4133
v  -0.8326 0.5308 0.6902
v  -0.8326 0.6692 0.6902
v  -0.9396 0.6692 0.7188
v  -0.9396 0.5308 0.7188
v  -0.8654 0.5308 0.9957
v  -0.8654 0.6692 0.9957
v  -0.7584 0.5308 0.9670
v  -0.5558 0.5308 1.1697
v  -0.5558 0.6692 1.1697
v  -0.7584 0.6692 0.9670
v  -0.5844 0.6692 1.2767
v  -0.5844 0.5308 1.2767
v  -0.3076 0.5308 1.3509
v  -0.3076 0.6692 1.3509
v  -0.2789 0.6692 1.2439
v  -0.2789 0.5308 1.2439
v  -0.0021 0.5308 1.1697
v  -0.0021 0.6692 1.1697
v  0.0762 0.5308 1.2480
v  0.2789 0.5308 1.0453
v  0.2789 0.6692 1.0453
v  0.0762 0.6692 1.2480
v  0.2006 0.5308 0.9670
v  0.2748 0.5308 0.6902
v  0.2748 0.6692 0.6902
v  0.2006 0.6692 0.9670
v  0.3076 0.5308 0.3847
v  0.3076 0.6692 0.3847
v  0.3818 0.6692 0.6615
v  0.3818 0.5308 0.6615
v  -0.0392 0.5308 0.5518
v  -0.1405 0.5308 0.4504
v  -0.2789 0.5308 0.4133
v  -0.4173 0.5308 0.4504
v  -0.5187 0.5308 0.5518
v  -0.5558 0.5308 0.6902
v  -0.5187 0.5308 0.8286
v  -0.4173 0.5308 0.9299
v  -0.2789 0.5308 0.9670
v  -0.1405 0.5308 0.9299
v  -0.0392 0.5308 0.8286
v  -0.0021 0.5308 0.6902
v  -0.1405 0.6692 0.4504
v  -0.0392 0.6692 0.5518
v  -0.2789 0.6692 0.4133
v  -0.4173 0.6692 0.4504
v  -0.5187 0.6692 0.5518
v  -0.5558 0.6692 0.6902
v  -0.5187 0.6692 0.8286
v  -0.4173 0.6692 0.9299
v  -0.2789 0.6692 0.9670
v  -0.1405 0.6692 0.9299
v  -0.0392 0.6692 0.8286
v  -0.0021 0.6692 0.6902
v  1.1672 0.6972 -1.1813
v  1.1672 0.5028 -1.1813
v  0.8825 0.5028 -1.4659
v  0.8825 0.6972 -1.4659
v  0.5339 0.6972 -1.7204
v  0.9228 0.6972 -1.6162
v  0.9228 0.5028 -1.6162
v  0.5339 0.5028 -1.7204
v  0.1047 0.5028 -1.4659
v  0.1047 0.6972 -1.4659
v  0.4936 0.6972 -1.5701
v  0.4936 0.5028 -1.5701
v  -0.0053 0.5028 -1.5759
v  -0.2899 0.5028 -1.2912
v  -0.2899 0.6972 -1.2912
v  -0.0053 0.6972 -1.5759
v  -0.1799 0.6972 -1.1813
v  -0.1799 0.5028 -1.1813
v  -0.2841 0.5028 -0.7924
v  -0.2841 0.6972 -0.7924
v  -0.4344 0.5028 -0.7521
v  -0.3302 0.5028 -0.3632
v  -0.3302 0.6972 -0.3632
v  -0.4344 0.6972 -0.7521
v  0.1047 0.6972 -0.1188
v  -0.1799 0.6972 -0.4035
v  -0.1799 0.5028 -0.4035
v  0.1047 0.5028 -0.1188
v  0.0645 0.6972 0.0315
v  0.0645 0.5028 0.0315
v  0.4534 0.5028 0.1357
v  0.4534 0.6972 0.1357
v  0.4936 0.5028 -0.0146
v  0.8825 0.5028 -0.1188
v  0.8825 0.6972 -0.1188
v  0.4936 0.6972 -0.0146
v  0.9925 0.6972 -0.0088
v  0.9925 0.5028 -0.0088
v  1.2772 0.5028 -0.2935
v  1.2772 0.6972 -0.2935
v  1.2714 0.6972 -0.7924
v  1.1672 0.6972 -0.4035
v  1.1672 0.5028 -0.4035
v  1.2714 0.5028 -0.7924
v  1.4217 0.5028 -0.8326
v  1.3175 0.5028 -1.2215
v  1.3175 0.6972 -1.2215
v  1.4217 0.6972 -0.8326
v  0.8304 0.5028 -0.9868
v  0.6881 0.5028 -1.1292
v  0.4936 0.5028 -1.1813
v  0.2992 0.5028 -1.1292
v  0.1568 0.5028 -0.9868
v  0.1047 0.5028 -0.7924
v  0.1568 0.5028 -0.5979
v  0.2992 0.5028 -0.4556
v  0.4936 0.5028 -0.4035
v  0.6881 0.5028 -0.4556
v  0.8304 0.5028 -0.5979
v  0.8825 0.5028 -0.7924
v  0.6881 0.6972 -1.1292
v  0.8304 0.6972 -0.9868
v  0.4936 0.6972 -1.1813
v  0.2992 0.6972 -1.1292
v  0.1568 0.6972 -0.9868
v  0.1047 0.6972 -0.7924
v  0.1568 0.6972 -0.5979
v  0.2992 0.6972 -0.4556
v  0.4936 0.6972 -0.4035
v  0.6881 0.6972 -0.4556
v  0.8304 0.6972 -0.5979
v  0.8825 0.6972 -0.7924
# 144 vertices

vn 0.7071 0.0000 -0.7071
vn 0.2588 0.0000 -0.9659
vn -0.2588 0.0000 -0.9659
vn -0.7071 0.0000 -0.7071
vn -0.9659 0.0000 -0.2588
vn -0.9659 0.0000 0.2588
vn -0.7071 0.0000 0.7071
vn -0.2588 0.0000 0.9659
vn 0.2588 0.0000 0.9659
vn 0.7071 0.0000 0.7071
vn 0.9659 0.0000 0.2588
vn 0.9659 0.0000 -0.2588
vn 0.0000 -1.0000 -0.0000
vn 0.0000 1.0000 -0.0000
# 14 vertex normals

vt 0.1514 0.4145 0.0000
vt 0.1277 0.4145 0.0000
vt 0.1277 0.4030 0.0000
vt 0.1514 0.4030 0.0000
vt 0.1185 0.4145 0.0000
vt 0.0947 0.4145 0.0000
vt 0.0947 0.4030 0.0000
vt 0.1185 0.4030 0.0000
vt 0.0618 0.4030 0.0000
vt 0.0856 0.4030 0.0000
vt 0.0856 0.4145 0.0000
vt 0.0618 0.4145 0.0000
vt 0.4240 0.4145 0.0000
vt 0.4240 0.4031 0.0000
vt 0.4478 0.4031 0.0000
vt 0.4478 0.4145 0.0000
vt 0.4149 0.4031 0.0000
vt 0.4149 0.4145 0.0000
vt 0.3911 0.4145 0.0000
vt 0.3911 0.4030 0.0000
vt 0.3819 0.4030 0.0000
vt 0.3819 0.4145 0.0000
vt 0.3582 0.4145 0.0000
vt 0.3582 0.4030 0.0000
vt 0.3490 0.4145 0.0000
vt 0.3253 0.4145 0.0000
vt 0.3253 0.4030 0.0000
vt 0.3490 0.4030 0.0000
vt 0.3161 0.4030 0.0000
vt 0.3161 0.4145 0.0000
vt 0.2923 0.4145 0.0000
vt 0.2923 0.4030 0.0000
vt 0.2832 0.4030 0.0000
vt 0.2832 0.4145 0.0000
vt 0.2594 0.4145 0.0000
vt 0.2594 0.4030 0.0000
vt 0.2502 0.4145 0.0000
vt 0.2265 0.4145 0.0000
vt 0.2265 0.4030 0.0000
vt 0.2502 0.4030 0.0000
vt 0.2173 0.4145 0.0000
vt 0.1935 0.4145 0.0000
vt 0.1935 0.4030 0.0000
vt 0.2173 0.4030 0.0000
vt 0.1606 0.4145 0.0000
vt 0.1606 0.4030 0.0000
vt 0.1844 0.4030 0.0000
vt 0.1844 0.4145 0.0000
vt 0.2148 0.5271 0.0000
vt 0.1790 0.5478 0.0000
vt 0.1638 0.5326 0.0000
vt 0.1845 0.4968 0.0000
vt 0.1431 0.5271 0.0000
vt 0.1431 0.4857 0.0000
vt 0.1224 0.5326 0.0000
vt 0.1017 0.4968 0.0000
vt 0.1073 0.5478 0.0000
vt 0.0714 0.5271 0.0000
vt 0.1017 0.5685 0.0000
vt 0.0603 0.5685 0.0000
vt 0.1073 0.5892 0.0000
vt 0.0714 0.6099 0.0000
vt 0.1017 0.6402 0.0000
vt 0.1224 0.6043 0.0000
vt 0.1431 0.6099 0.0000
vt 0.1431 0.6513 0.0000
vt 0.1638 0.6043 0.0000
vt 0.1845 0.6402 0.0000
vt 0.1790 0.5892 0.0000
vt 0.2148 0.6099 0.0000
vt 0.1845 0.5685 0.0000
vt 0.2259 0.5685 0.0000
vt 0.4052 0.6414 0.0000
vt 0.3845 0.6055 0.0000
vt 0.3997 0.5904 0.0000
vt 0.4356 0.6111 0.0000
vt 0.3638 0.6111 0.0000
vt 0.3638 0.6525 0.0000
vt 0.3431 0.6055 0.0000
vt 0.3224 0.6414 0.0000
vt 0.3280 0.5904 0.0000
vt 0.2921 0.6111 0.0000
vt 0.2811 0.5697 0.0000
vt 0.3224 0.5697 0.0000
vt 0.2921 0.5283 0.0000
vt 0.3280 0.5490 0.0000
vt 0.3224 0.4980 0.0000
vt 0.3431 0.5338 0.0000
vt 0.3638 0.4869 0.0000
vt 0.3638 0.5283 0.0000
vt 0.4052 0.4980 0.0000
vt 0.3845 0.5338 0.0000
vt 0.4356 0.5283 0.0000
vt 0.3997 0.5490 0.0000
vt 0.4466 0.5697 0.0000
vt 0.4052 0.5697 0.0000
vt 0.1600 0.4593 0.0000
vt 0.1271 0.4593 0.0000
vt 0.1271 0.4274 0.0000
vt 0.1600 0.4274 0.0000
vt 0.1929 0.4593 0.0000
vt 0.1929 0.4274 0.0000
vt 0.2259 0.4593 0.0000
vt 0.2259 0.4274 0.0000
vt 0.2588 0.4274 0.0000
vt 0.2588 0.4593 0.0000
vt 0.2917 0.4274 0.0000
vt 0.2917 0.4593 0.0000
vt 0.3247 0.4274 0.0000
vt 0.3247 0.4593 0.0000
vt 0.3576 0.4593 0.0000
vt 0.3576 0.4274 0.0000
vt 0.3905 0.4274 0.0000
vt 0.3905 0.4593 0.0000
vt 0.4235 0.4274 0.0000
vt 0.4235 0.4593 0.0000
vt 0.4564 0.4274 0.0000
vt 0.4564 0.4593 0.0000
vt 0.0612 0.4592 0.0000
vt 0.0612 0.4274 0.0000
vt 0.0942 0.4274 0.0000
vt 0.0942 0.4592 0.0000
vt 0.1474 0.4697 0.0000
vt 0.1888 0.4808 0.0000
vt 0.3681 0.6685 0.0000
vt 0.4095 0.6574 0.0000
vt 0.0597 0.5154 0.0000
vt 0.0900 0.4851 0.0000
vt 0.3107 0.6531 0.0000
vt 0.2804 0.6228 0.0000
vt 0.4570 0.4145 0.0000
vt 0.4570 0.4031 0.0000
vt 0.0554 0.6142 0.0000
vt 0.0443 0.5728 0.0000
vt 0.2651 0.5654 0.0000
vt 0.2761 0.5240 0.0000
vt 0.0974 0.6562 0.0000
vt 0.1388 0.6673 0.0000
vt 0.3182 0.4820 0.0000
vt 0.3596 0.4709 0.0000
vt 0.2265 0.6216 0.0000
vt 0.1962 0.6519 0.0000
vt 0.4170 0.4862 0.0000
vt 0.4473 0.5166 0.0000
vt 0.2308 0.5228 0.0000
vt 0.2419 0.5642 0.0000
vt 0.4626 0.5739 0.0000
vt 0.4515 0.6153 0.0000
vt 0.4609 0.7376 0.0000
vt 0.4609 0.7491 0.0000
vt 0.4371 0.7491 0.0000
vt 0.4371 0.7376 0.0000
vt 0.4042 0.7376 0.0000
vt 0.4280 0.7376 0.0000
vt 0.4280 0.7491 0.0000
vt 0.4042 0.7491 0.0000
vt 0.3713 0.7491 0.0000
vt 0.3713 0.7376 0.0000
vt 0.3950 0.7376 0.0000
vt 0.3950 0.7491 0.0000
vt 0.3621 0.7491 0.0000
vt 0.3383 0.7491 0.0000
vt 0.3383 0.7376 0.0000
vt 0.3621 0.7376 0.0000
vt 0.3291 0.7376 0.0000
vt 0.3291 0.7491 0.0000
vt 0.3054 0.7491 0.0000
vt 0.3054 0.7376 0.0000
vt 0.2962 0.7491 0.0000
vt 0.2725 0.7491 0.0000
vt 0.2725 0.7376 0.0000
vt 0.2962 0.7376 0.0000
vt 0.2395 0.7376 0.0000
vt 0.2633 0.7376 0.0000
vt 0.2633 0.7491 0.0000
vt 0.2395 0.7491 0.0000
vt 0.2303 0.7376 0.0000
vt 0.2303 0.7491 0.0000
vt 0.2066 0.7491 0.0000
vt 0.2066 0.7376 0.0000
vt 0.1974 0.7491 0.0000
vt 0.1737 0.7491 0.0000
vt 0.1737 0.7376 0.0000
vt 0.1974 0.7376 0.0000
vt 0.1645 0.7376 0.0000
vt 0.1645 0.7491 0.0000
vt 0.1407 0.7491 0.0000
vt 0.1407 0.7376 0.0000
vt 0.1078 0.7376 0.0000
vt 0.1316 0.7376 0.0000
vt 0.1316 0.7491 0.0000
vt 0.1078 0.7491 0.0000
vt 0.0986 0.7491 0.0000
vt 0.0749 0.7491 0.0000
vt 0.0749 0.7376 0.0000
vt 0.0986 0.7376 0.0000
vt 0.1918 0.8342 0.0000
vt 0.1767 0.8190 0.0000
vt 0.1974 0.7832 0.0000
vt 0.2277 0.8135 0.0000
vt 0.1560 0.8135 0.0000
vt 0.1560 0.7721 0.0000
vt 0.1353 0.8190 0.0000
vt 0.1146 0.7832 0.0000
vt 0.1201 0.8342 0.0000
vt 0.0843 0.8135 0.0000
vt 0.0732 0.8549 0.0000
vt 0.1146 0.8549 0.0000
vt 0.1201 0.8756 0.0000
vt 0.0843 0.8963 0.0000
vt 0.1146 0.9266 0.0000
vt 0.1353 0.8907 0.0000
vt 0.1560 0.9377 0.0000
vt 0.1560 0.8963 0.0000
vt 0.1767 0.8907 0.0000
vt 0.1974 0.9266 0.0000
vt 0.2277 0.8963 0.0000
vt 0.1918 0.8756 0.0000
vt 0.1974 0.8549 0.0000
vt 0.2388 0.8549 0.0000
vt 0.4360 0.8950 0.0000
vt 0.4057 0.9253 0.0000
vt 0.3850 0.8895 0.0000
vt 0.4002 0.8743 0.0000
vt 0.3643 0.9364 0.0000
vt 0.3643 0.8950 0.0000
vt 0.3229 0.9253 0.0000
vt 0.3436 0.8895 0.0000
vt 0.2926 0.8950 0.0000
vt 0.3285 0.8743 0.0000
vt 0.2815 0.8536 0.0000
vt 0.3229 0.8536 0.0000
vt 0.2926 0.8122 0.0000
vt 0.3285 0.8329 0.0000
vt 0.3229 0.7819 0.0000
vt 0.3436 0.8178 0.0000
vt 0.3643 0.7708 0.0000
vt 0.3643 0.8122 0.0000
vt 0.4057 0.7819 0.0000
vt 0.3850 0.8178 0.0000
vt 0.4360 0.8122 0.0000
vt 0.4002 0.8329 0.0000
vt 0.4057 0.8536 0.0000
vt 0.4471 0.8536 0.0000
vt 0.2912 0.7198 0.0000
vt 0.2912 0.6842 0.0000
vt 0.3280 0.6842 0.0000
vt 0.3280 0.7198 0.0000
vt 0.3649 0.6842 0.0000
vt 0.3649 0.7198 0.0000
vt 0.4018 0.6842 0.0000
vt 0.4018 0.7198 0.0000
vt 0.4386 0.6842 0.0000
vt 0.4386 0.7198 0.0000
vt 0.4755 0.6842 0.0000
vt 0.4755 0.7198 0.0000
vt 0.0331 0.6842 0.0000
vt 0.0700 0.6842 0.0000
vt 0.0700 0.7198 0.0000
vt 0.0331 0.7198 0.0000
vt 0.1068 0.6842 0.0000
vt 0.1068 0.7198 0.0000
vt 0.1437 0.6842 0.0000
vt 0.1437 0.7198 0.0000
vt 0.1806 0.6842 0.0000
vt 0.1806 0.7198 0.0000
vt 0.2174 0.6842 0.0000
vt 0.2174 0.7198 0.0000
vt 0.2543 0.7198 0.0000
vt 0.2543 0.6842 0.0000
vt 0.1603 0.7561 0.0000
vt 0.2017 0.7672 0.0000
vt 0.3686 0.9524 0.0000
vt 0.4100 0.9413 0.0000
vt 0.0726 0.8018 0.0000
vt 0.1029 0.7715 0.0000
vt 0.3112 0.9371 0.0000
vt 0.2809 0.9068 0.0000
vt 0.0683 0.9006 0.0000
vt 0.0572 0.8592 0.0000
vt 0.2655 0.8494 0.0000
vt 0.2766 0.8080 0.0000
vt 0.1517 0.9537 0.0000
vt 0.1103 0.9426 0.0000
vt 0.3600 0.7549 0.0000
vt 0.3186 0.7659 0.0000
vt 0.2394 0.9080 0.0000
vt 0.2091 0.9383 0.0000
vt 0.4477 0.8005 0.0000
vt 0.4174 0.7702 0.0000
vt 0.2437 0.8092 0.0000
vt 0.2548 0.8506 0.0000
vt 0.0657 0.7376 0.0000
vt 0.0657 0.7491 0.0000
vt 0.4631 0.8579 0.0000
vt 0.4520 0.8993 0.0000
# 296 texture coords

g Object001
usemtl Material__0
f 1/1/1 2/2/1 3/3/1 4/4/1 
f 5/5/2 6/6/2 7/7/2 8/8/2 
f 9/9/3 10/10/3 11/11/3 12/12/3 
f 13/13/4 14/14/4 15/15/4 16/16/4 
f 17/17/5 18/18/5 19/19/5 20/20/5 
f 21/21/6 22/22/6 23/23/6 24/24/6 
f 25/25/7 26/26/7 27/27/7 28/28/7 
f 29/29/8 30/30/8 31/31/8 32/32/8 
f 33/33/9 34/34/9 35/35/9 36/36/9 
f 37/37/10 38/38/10 39/39/10 40/40/10 
f 41/41/11 42/42/11 43/43/11 44/44/11 
f 45/45/12 46/46/12 47/47/12 48/48/12 
f 1/49/13 49/50/13 50/51/13 2/52/13 
f 51/53/13 11/54/13 2/52/13 50/51/13 
f 11/54/13 51/53/13 52/55/13 12/56/13 
f 52/55/13 53/57/13 18/58/13 12/56/13 
f 18/58/13 53/57/13 54/59/13 19/60/13 
f 55/61/13 25/62/13 19/60/13 54/59/13 
f 26/63/13 25/62/13 55/61/13 56/64/13 
f 57/65/13 34/66/13 26/63/13 56/64/13 
f 34/66/13 57/65/13 58/67/13 35/68/13 
f 59/69/13 41/70/13 35/68/13 58/67/13 
f 60/71/13 42/72/13 41/70/13 59/69/13 
f 49/50/13 1/49/13 42/72/13 60/71/13 
f 3/73/14 61/74/14 62/75/14 4/76/14 
f 63/77/14 61/74/14 3/73/14 10/78/14 
f 64/79/14 63/77/14 10/78/14 9/80/14 
f 65/81/14 64/79/14 9/80/14 17/82/14 
f 20/83/14 66/84/14 65/81/14 17/82/14 
f 66/84/14 20/83/14 28/85/14 67/86/14 
f 67/86/14 28/85/14 27/87/14 68/88/14 
f 27/87/14 33/89/14 69/90/14 68/88/14 
f 33/89/14 36/91/14 70/92/14 69/90/14 
f 70/92/14 36/91/14 44/93/14 71/94/14 
f 71/94/14 44/93/14 43/95/14 72/96/14 
f 62/75/14 72/96/14 43/95/14 4/76/14 
f 67/97/1 68/98/1 56/99/1 55/100/1 
f 66/101/12 67/97/12 55/100/12 54/102/12 
f 65/103/11 66/101/11 54/102/11 53/104/11 
f 53/104/10 52/105/10 64/106/10 65/103/10 
f 64/106/9 52/105/9 51/107/9 63/108/9 
f 63/108/8 51/107/8 50/109/8 61/110/8 
f 62/111/7 61/110/7 50/109/7 49/112/7 
f 60/113/6 72/114/6 62/111/6 49/112/6 
f 60/113/5 59/115/5 71/116/5 72/114/5 
f 59/115/4 58/117/4 70/118/4 71/116/4 
f 70/119/3 58/120/3 57/121/3 69/122/3 
f 57/121/2 56/99/2 68/98/2 69/122/2 
f 6/123/13 5/124/13 2/52/13 11/54/13 
f 11/11/5 10/10/5 7/7/5 6/6/5 
f 7/125/14 10/78/14 3/73/14 8/126/14 
f 2/2/11 5/5/11 8/8/11 3/3/11 
f 13/127/13 16/128/13 12/56/13 18/58/13 
f 13/13/7 18/18/7 17/17/7 14/14/7 
f 17/82/14 9/80/14 15/129/14 14/130/14 
f 12/131/1 16/16/1 15/15/1 9/132/1 
f 19/60/13 25/62/13 23/133/13 22/134/13 
f 25/25/9 28/28/9 24/24/9 23/23/9 
f 21/135/14 24/136/14 28/85/14 20/83/14 
f 19/19/3 22/22/3 21/21/3 20/20/3 
f 30/137/13 26/63/13 34/66/13 31/138/13 
f 32/32/11 31/31/11 34/34/11 33/33/11 
f 27/87/14 29/139/14 32/140/14 33/89/14 
f 29/29/5 27/27/5 26/26/5 30/30/5 
f 35/68/13 41/70/13 38/141/13 37/142/13 
f 44/44/1 39/39/1 38/38/1 41/41/1 
f 44/93/14 36/91/14 40/143/14 39/144/14 
f 37/37/7 40/40/7 36/36/7 35/35/7 
f 42/72/13 1/49/13 45/145/13 48/146/13 
f 4/4/3 46/46/3 45/45/3 1/1/3 
f 47/147/14 46/148/14 4/76/14 43/95/14 
f 47/47/9 43/43/9 42/42/9 48/48/9 
f 73/149/1 74/150/1 75/151/1 76/152/1 
f 77/153/2 78/154/2 79/155/2 80/156/2 
f 81/157/3 82/158/3 83/159/3 84/160/3 
f 85/161/4 86/162/4 87/163/4 88/164/4 
f 89/165/5 90/166/5 91/167/5 92/168/5 
f 93/169/6 94/170/6 95/171/6 96/172/6 
f 97/173/7 98/174/7 99/175/7 100/176/7 
f 101/177/8 102/178/8 103/179/8 104/180/8 
f 105/181/9 106/182/9 107/183/9 108/184/9 
f 109/185/10 110/186/10 111/187/10 112/188/10 
f 113/189/11 114/190/11 115/191/11 116/192/11 
f 117/193/12 118/194/12 119/195/12 120/196/12 
f 121/197/13 122/198/13 75/199/13 74/200/13 
f 123/201/13 84/202/13 75/199/13 122/198/13 
f 123/201/13 124/203/13 81/204/13 84/202/13 
f 124/203/13 125/205/13 90/206/13 81/204/13 
f 91/207/13 90/206/13 125/205/13 126/208/13 
f 127/209/13 99/210/13 91/207/13 126/208/13 
f 100/211/13 99/210/13 127/209/13 128/212/13 
f 105/213/13 100/211/13 128/212/13 129/214/13 
f 130/215/13 106/216/13 105/213/13 129/214/13 
f 115/217/13 106/216/13 130/215/13 131/218/13 
f 131/218/13 132/219/13 116/220/13 115/217/13 
f 121/197/13 74/200/13 116/220/13 132/219/13 
f 73/221/14 76/222/14 133/223/14 134/224/14 
f 76/222/14 83/225/14 135/226/14 133/223/14 
f 135/226/14 83/225/14 82/227/14 136/228/14 
f 89/229/14 137/230/14 136/228/14 82/227/14 
f 89/229/14 92/231/14 138/232/14 137/230/14 
f 138/232/14 92/231/14 98/233/14 139/234/14 
f 98/233/14 97/235/14 140/236/14 139/234/14 
f 97/235/14 108/237/14 141/238/14 140/236/14 
f 107/239/14 142/240/14 141/238/14 108/237/14 
f 114/241/14 143/242/14 142/240/14 107/239/14 
f 144/243/14 143/242/14 114/241/14 113/244/14 
f 134/224/14 144/243/14 113/244/14 73/221/14 
f 140/245/1 128/246/1 127/247/1 139/248/1 
f 126/249/12 138/250/12 139/248/12 127/247/12 
f 138/250/11 126/249/11 125/251/11 137/252/11 
f 137/252/10 125/251/10 124/253/10 136/254/10 
f 136/254/9 124/253/9 123/255/9 135/256/9 
f 123/257/8 122/258/8 133/259/8 135/260/8 
f 133/259/7 122/258/7 121/261/7 134/262/7 
f 134/262/6 121/261/6 132/263/6 144/264/6 
f 131/265/5 143/266/5 144/264/5 132/263/5 
f 130/267/4 142/268/4 143/266/4 131/265/4 
f 141/269/3 142/268/3 130/267/3 129/270/3 
f 140/245/2 141/269/2 129/270/2 128/246/2 
f 80/271/13 79/272/13 75/199/13 84/202/13 
f 84/160/5 83/159/5 77/153/5 80/156/5 
f 77/273/14 83/225/14 76/222/14 78/274/14 
f 76/152/11 75/151/11 79/155/11 78/154/11 
f 86/275/13 85/276/13 81/204/13 90/206/13 
f 86/162/7 90/166/7 89/165/7 87/163/7 
f 89/229/14 82/227/14 88/277/14 87/278/14 
f 82/158/1 81/157/1 85/161/1 88/164/1 
f 99/210/13 94/279/13 93/280/13 91/207/13 
f 95/171/9 94/170/9 99/175/9 98/174/9 
f 96/281/14 95/282/14 98/233/14 92/231/14 
f 91/167/3 93/169/3 96/172/3 92/168/3 
f 103/283/13 102/284/13 100/211/13 105/213/13 
f 103/179/11 105/181/11 108/184/11 104/180/11 
f 104/285/14 108/237/14 97/235/14 101/286/14 
f 101/177/5 97/173/5 100/176/5 102/178/5 
f 106/216/13 115/217/13 111/287/13 110/288/13 
f 114/190/1 112/188/1 111/187/1 115/191/1 
f 112/289/14 114/241/14 107/239/14 109/290/14 
f 109/185/7 107/183/7 106/182/7 110/186/7 
f 116/220/13 74/200/13 118/291/13 117/292/13 
f 73/293/3 119/195/3 118/194/3 74/294/3 
f 120/295/14 119/296/14 73/221/14 113/244/14 
f 117/193/9 120/196/9 113/189/9 116/192/9 
# 144 polygons

